<svg
  width="47"
  height="19"
  viewBox="0 0 47 19"
  fill="none"
  xmlns="http://www.w3.org/2000/svg"
  class="w-[46.81px] h-[18.38px]"
  preserveAspectRatio="none"
>
  <g clip-path="url(#clip0_37_376)">
    <path
      d="M46.2444 14.3165C46.2444 16.1466 44.8583 17.521 42.589 17.521H41.5621C40.8434 17.4819 40.273 16.9278 40.273 16.2484V10.0371C40.273 9.55943 40.6634 9.17233 41.1448 9.17233H41.5976C43.4336 9.17233 44.1671 9.8993 44.1671 11.6869H44.7282V5.9985H44.1671C44.1671 7.78614 43.4336 8.51311 41.5976 8.51311H41.1448C40.6631 8.51311 40.273 8.12601 40.273 7.64839V1.95152C40.273 1.24648 40.8862 0.675247 41.6426 0.675247H42.2902C44.5595 0.675247 45.9456 2.04963 45.9456 3.87972H46.5067V0.0157433H36.1257V0.674966C36.6871 0.674966 37.1398 1.12391 37.1398 2.08787V15.9304C37.1398 16.8753 37.0077 17.7192 35.9817 17.7192C32.7065 17.7192 35.1362 10.9057 29.7639 9.10486C32.3053 8.54263 33.4394 6.94897 33.4394 4.62243C33.4394 1.79578 31.6444 0.0157433 27.5008 0.0157433H21.7449V0.674966C22.3062 0.674966 22.759 1.12391 22.759 2.08787V16.1081C22.759 17.072 22.3062 17.521 21.7449 17.521V18.1802H26.906V17.521C26.3446 17.521 25.8919 17.072 25.8919 16.1081V10.1967C25.8919 9.71911 26.2823 9.33201 26.764 9.33201H27.3018L27.3029 9.33313C31.2245 9.33313 28.09 18.3801 35.2689 18.3801C36.3208 18.3801 36.6803 18.1802 37.3584 18.1802H46.8058V14.3162H46.2447L46.2444 14.3165ZM27.2304 8.67306H26.7952C26.7827 8.67306 26.7708 8.6725 26.7583 8.6725C26.2794 8.66913 25.8922 8.284 25.8922 7.80834V1.95209C25.8922 1.24901 26.5023 0.678901 27.2562 0.67609C29.0083 0.685929 29.9898 1.67237 29.9898 4.62159C29.9898 7.68943 28.9989 8.67278 27.2301 8.67278L27.2304 8.67306Z"
      fill="#F9F7F4"
    ></path>
    <path
      d="M14.5289 0.0233328V0.634765C15.3598 0.634765 16.4213 1.69177 15.4647 3.44651L9.60275 15.3246L9.6036 15.3224C8.84775 16.8424 7.9198 17.5193 6.64624 17.5193V18.1808H11.3523V17.5193C10.4593 17.5193 9.60502 17.0175 10.3481 15.5042L10.345 15.5107L11.4981 13.1746C11.7889 12.6121 12.2111 12.3484 12.7753 12.3484H15.2518C15.7335 12.3484 16.1239 12.7355 16.1239 13.2131V16.1086C16.1239 17.0726 15.6711 17.5215 15.1098 17.5215V18.1808H20.2709V17.5215C19.7096 17.5215 19.2568 17.0726 19.2568 16.1086V0M16.1239 10.8242C16.1239 11.3018 15.7335 11.6886 15.2521 11.6889H13.1042C12.631 11.6889 12.4799 11.2155 12.648 10.8447L15.5087 5.04945C15.9544 4.13497 16.1242 4.20666 16.1242 5.23246V10.8245L16.1239 10.8242Z"
      fill="#F9F7F4"
    ></path>
    <path
      d="M4.15412 0.0261446L0.00683594 0.0157433V0.674966C0.568199 0.674966 1.02098 1.12391 1.02098 2.08787V16.1081C1.02098 17.072 0.568199 17.521 0.00683594 17.521V18.1802H5.16798V17.521C4.60661 17.521 4.15384 17.072 4.15384 16.1081V10.0371C4.15384 9.55943 4.54424 9.17233 5.02593 9.17233H5.27089C7.10695 9.17233 7.8404 9.8993 7.8404 11.6869H8.40148V5.9985H7.8404C7.8404 7.78614 7.10695 8.51311 5.27089 8.51311H5.02593C4.54452 8.51311 4.15412 8.12601 4.15412 7.64839V1.93325L4.16518 1.95152C4.16518 1.24648 4.77842 0.675247 5.53485 0.675247H6.1824C8.45167 0.675247 9.83778 2.04963 9.83778 3.87972H10.3989V0.0157433L4.15412 0.0258635V0.0261446Z"
      fill="#F9F7F4"
    ></path>
  </g>
  <defs>
    <clipPath id="clip0_37_376">
      <rect width="46.8125" height="18.3804" fill="white"></rect>
    </clipPath>
  </defs>
</svg>