<svg width="11" height="19" viewBox="0 0 11 19" fill="none" xmlns="http://www.w3.org/2000/svg">
<path d="M4.15424 0.0261446L0.00695801 0.0157433V0.674966C0.568321 0.674966 1.0211 1.12391 1.0211 2.08787V16.1081C1.0211 17.072 0.568321 17.521 0.00695801 17.521V18.1802H5.1681V17.521C4.60673 17.521 4.15396 17.072 4.15396 16.1081V10.0371C4.15396 9.55943 4.54436 9.17233 5.02605 9.17233H5.27101C7.10707 9.17233 7.84053 9.8993 7.84053 11.6869H8.40161V5.9985H7.84053C7.84053 7.78614 7.10707 8.51311 5.27101 8.51311H5.02605C4.54464 8.51311 4.15424 8.12601 4.15424 7.64839V1.93325L4.1653 1.95152C4.1653 1.24648 4.77854 0.675247 5.53497 0.675247H6.18252C8.45179 0.675247 9.8379 2.04963 9.8379 3.87972H10.399V0.0157433L4.15424 0.0258635V0.0261446Z" fill="#003F15"/>
</svg>
